<?xml version="1.0" encoding="UTF-8" standalone="no"?>
<!-- Created with Inkscape (http://www.inkscape.org/) -->

<svg
   width="64pt"
   height="64pt"
   viewBox="0 0 22.577778 22.577778"
   version="1.1"
   id="svg831"
   inkscape:version="1.1.2 (0a00cf5339, 2022-02-04)"
   sodipodi:docname="21 - DNA.svg"
   inkscape:export-filename="/media/taufikramadhan/Data/Tr Design Studio/Project Design/TR Creative Design/Icon Design/Project Hiring/Icon Icons/026 - Science And Technology/5 - Send/21 - DNA.png"
   inkscape:export-xdpi="576"
   inkscape:export-ydpi="576"
   xmlns:inkscape="http://www.inkscape.org/namespaces/inkscape"
   xmlns:sodipodi="http://sodipodi.sourceforge.net/DTD/sodipodi-0.dtd"
   xmlns="http://www.w3.org/2000/svg"
   xmlns:svg="http://www.w3.org/2000/svg"
   xmlns:rdf="http://www.w3.org/1999/02/22-rdf-syntax-ns#"
   xmlns:cc="http://creativecommons.org/ns#"
   xmlns:dc="http://purl.org/dc/elements/1.1/">
  <defs
     id="defs825">
    <pattern
       id="EMFhbasepattern"
       patternUnits="userSpaceOnUse"
       width="6"
       height="6"
       x="0"
       y="0" />
    <pattern
       id="EMFhbasepattern-9"
       patternUnits="userSpaceOnUse"
       width="6"
       height="6"
       x="0"
       y="0" />
    <pattern
       id="EMFhbasepattern-0"
       patternUnits="userSpaceOnUse"
       width="6"
       height="6"
       x="0"
       y="0" />
    <pattern
       id="EMFhbasepattern-7"
       patternUnits="userSpaceOnUse"
       width="6"
       height="6"
       x="0"
       y="0" />
    <pattern
       id="EMFhbasepattern-2"
       patternUnits="userSpaceOnUse"
       width="6"
       height="6"
       x="0"
       y="0" />
    <pattern
       id="EMFhbasepattern-98"
       patternUnits="userSpaceOnUse"
       width="6"
       height="6"
       x="0"
       y="0" />
    <pattern
       id="EMFhbasepattern-6"
       patternUnits="userSpaceOnUse"
       width="6"
       height="6"
       x="0"
       y="0" />
    <pattern
       id="EMFhbasepattern-01"
       patternUnits="userSpaceOnUse"
       width="6"
       height="6"
       x="0"
       y="0" />
    <pattern
       id="EMFhbasepattern-07"
       patternUnits="userSpaceOnUse"
       width="6"
       height="6"
       x="0"
       y="0" />
    <pattern
       id="EMFhbasepattern-8"
       patternUnits="userSpaceOnUse"
       width="6"
       height="6"
       x="0"
       y="0" />
    <pattern
       id="EMFhbasepattern-4"
       patternUnits="userSpaceOnUse"
       width="6"
       height="6"
       x="0"
       y="0" />
    <pattern
       id="EMFhbasepattern-40"
       patternUnits="userSpaceOnUse"
       width="6"
       height="6"
       x="0"
       y="0" />
    <pattern
       id="EMFhbasepattern-08"
       patternUnits="userSpaceOnUse"
       width="6"
       height="6"
       x="0"
       y="0" />
    <pattern
       id="EMFhbasepattern-04"
       patternUnits="userSpaceOnUse"
       width="6"
       height="6"
       x="0"
       y="0" />
    <pattern
       id="EMFhbasepattern-014"
       patternUnits="userSpaceOnUse"
       width="6"
       height="6"
       x="0"
       y="0" />
    <pattern
       id="EMFhbasepattern-27"
       patternUnits="userSpaceOnUse"
       width="6"
       height="6"
       x="0"
       y="0" />
    <pattern
       id="EMFhbasepattern-09"
       patternUnits="userSpaceOnUse"
       width="6"
       height="6"
       x="0"
       y="0" />
    <pattern
       id="EMFhbasepattern-5"
       patternUnits="userSpaceOnUse"
       width="6"
       height="6"
       x="0"
       y="0" />
    <pattern
       id="EMFhbasepattern-018"
       patternUnits="userSpaceOnUse"
       width="6"
       height="6"
       x="0"
       y="0" />
  </defs>
  <sodipodi:namedview
     id="base"
     pagecolor="#ffffff"
     bordercolor="#666666"
     borderopacity="1.0"
     inkscape:pageopacity="0.0"
     inkscape:pageshadow="2"
     inkscape:zoom="3.421875"
     inkscape:cx="42.958904"
     inkscape:cy="42.812785"
     inkscape:document-units="pt"
     inkscape:current-layer="layer1"
     showgrid="false"
     units="pt"
     inkscape:window-width="1366"
     inkscape:window-height="719"
     inkscape:window-x="0"
     inkscape:window-y="26"
     inkscape:window-maximized="1"
     inkscape:pagecheckerboard="true"
     inkscape:showpageshadow="false"
     inkscape:object-paths="true"
     inkscape:snap-intersection-paths="true"
     inkscape:snap-smooth-nodes="true"
     inkscape:snap-midpoints="true"
     showguides="true"
     inkscape:snap-bbox="true"
     inkscape:bbox-nodes="true"
     inkscape:snap-nodes="false"
     inkscape:snap-global="true"
     inkscape:snap-others="false">
    <inkscape:grid
       type="xygrid"
       id="grid1378" />
    <sodipodi:guide
       position="0.97013831,21.607643"
       orientation="78.000048,0"
       id="guide1380"
       inkscape:locked="false" />
    <sodipodi:guide
       position="0.97013831,0.97013129"
       orientation="0,78.000005"
       id="guide1382"
       inkscape:locked="false" />
    <sodipodi:guide
       position="21.607639,0.97013129"
       orientation="-78.000048,0"
       id="guide1384"
       inkscape:locked="false" />
    <sodipodi:guide
       position="21.607639,21.607643"
       orientation="0,-78.000005"
       id="guide1386"
       inkscape:locked="false" />
  </sodipodi:namedview>
  <metadata
     id="metadata828">
    <rdf:RDF>
      <cc:Work
         rdf:about="">
        <dc:format>image/svg+xml</dc:format>
        <dc:type
           rdf:resource="http://purl.org/dc/dcmitype/StillImage" />
      </cc:Work>
    </rdf:RDF>
  </metadata>
  <g
     inkscape:label="Icon"
     inkscape:groupmode="layer"
     id="layer1"
     transform="translate(0,-274.42223)">
    <path
       id="path6048"
       style="color:#000000;display:inline;fill:#000000;stroke-width:1;stroke-linecap:round;stroke-linejoin:round;stroke-miterlimit:10;-inkscape-stroke:none"
       d="m 3.9678545,275.39334 c -0.5475576,0 -0.9998855,0.45038 -0.9998889,0.99794 v 13.98089 H 2.4693213 c -0.8240713,0 -1.49918346,0.67253 -1.49918346,1.49658 v 3.1622 c 0,0.54754 0.45300216,0.99794 1.00053916,0.99794 h 8.653786 c 0.547536,0 0.997288,-0.4504 0.997288,-0.99794 v -0.33156 H 14.7846 c 0.824071,0 1.498532,-0.67512 1.498532,-1.49919 v -6.11831 c 0.339847,-0.0967 0.669663,-0.23717 0.980386,-0.42193 l 2.06154,2.49583 c 0.527009,0.52944 1.377283,0.52922 1.894458,0.0126 0.258575,-0.25858 0.388123,-0.60115 0.388123,-0.94137 5e-6,-0.34023 -0.129606,-0.68469 -0.400475,-0.95309 l -2.495823,-2.06154 c 0.949145,-1.5968 0.737081,-3.69805 -0.635169,-5.07031 -0.516442,-0.51644 -1.136094,-0.8682 -1.79304,-1.05579 v -2.69477 c -3e-6,-0.54756 -0.449733,-0.99793 -0.997288,-0.99793 z m 11.3179895,0.66377 c 0.187775,0 0.331562,0.14639 0.331563,0.33417 v 2.56213 c -0.934614,-0.10844 -1.898777,0.0988 -2.718815,0.62151 -0.192768,-0.12677 -0.396764,-0.23251 -0.610464,-0.314 0.120145,-0.10794 0.22969,-0.23112 0.326361,-0.36602 0.349587,-0.48785 0.553256,-1.13496 0.553255,-1.83789 7.32e-4,-0.18384 -0.147727,-0.33345 -0.331563,-0.33417 -0.184853,-6.7e-4 -0.334887,0.14931 -0.334163,0.33417 0,0.11297 -0.0068,0.22355 -0.0195,0.33156 H 9.8378184 c -0.012656,-0.10794 -0.019513,-0.21859 -0.0195,-0.33156 7.322e-4,-0.18486 -0.1493109,-0.33489 -0.3341633,-0.33417 -0.183836,6.7e-4 -0.3322826,0.15033 -0.331563,0.33417 -1.2e-6,0.70293 0.2030177,1.35004 0.5526049,1.83789 0.349587,0.48785 0.865862,0.82566 1.454975,0.82566 0.41956,0 0.814103,0.0987 1.170871,0.2893 -0.227085,0.19905 -0.427883,0.46091 -0.594862,0.67353 -0.181477,-0.0707 -0.375421,-0.11058 -0.576009,-0.11058 -1.5499689,0 -2.865093,-1.53977 -2.8650918,-3.51587 7.322e-4,-0.18486 -0.1493008,-0.33489 -0.3341633,-0.33416 -0.1839014,6.6e-4 -0.3322901,0.15026 -0.331563,0.33416 0,1.20598 0.4348614,2.30843 1.1390165,3.07834 -0.7075632,0.77039 -1.1390165,1.86767 -1.1390165,3.07897 0,1.20865 0.4376757,2.30756 1.1448665,3.07183 -0.7111487,0.7707 -1.1448665,1.87138 -1.1448665,3.08613 -7.322e-4,0.1839 0.1476654,0.33354 0.331563,0.33417 0.1848575,6.7e-4 0.3348892,-0.14931 0.3341633,-0.33417 0,-1.05817 0.3841488,-2.00115 0.9745346,-2.63949 0.2378874,0.17755 0.4957391,0.32213 0.7687612,0.42941 -0.1228998,0.10958 -0.2348738,0.235 -0.3331941,0.3722 -0.2243116,0.31303 -0.3884035,0.69161 -0.4784885,1.11563 -0.048939,0.23571 -0.074113,0.4755 -0.074113,0.72229 -7.322e-4,0.18383 0.1477283,0.33344 0.3315629,0.33416 0.1848512,6.6e-4 0.3348855,-0.14931 0.3341634,-0.33416 0,-0.11285 0.00692,-0.22371 0.0195,-0.33157 h 2.6446993 c 0.01262,0.10781 0.0195,0.21874 0.0195,0.33157 -7.32e-4,0.18485 0.149312,0.33489 0.334164,0.33416 0.183834,-6.7e-4 0.332281,-0.15033 0.331562,-0.33416 2e-6,-0.70293 -0.203669,-1.35005 -0.553255,-1.83791 -0.349586,-0.48785 -0.86521,-0.82565 -1.454324,-0.82565 -1.5525847,0 -2.8650933,-1.51831 -2.8650921,-3.49441 0,-1.05275 0.380201,-1.99092 0.9654325,-2.62909 0.2391367,0.18112 0.4983219,0.32907 0.7736466,0.43818 -0.1209249,0.10668 -0.2316975,0.2287 -0.3289623,0.36276 -0.3504401,0.48304 -0.5526048,1.1252 -0.5526048,1.82815 0,0.70293 0.2021647,1.34512 0.5526048,1.82814 0.3504403,0.48303 0.8683593,0.81331 1.4549753,0.81331 0.256219,0 0.501696,-0.0638 0.724237,-0.17553 0.09536,0.11914 0.197775,0.23419 0.308157,0.34456 0.93363,0.93363 2.204798,1.33035 3.424849,1.18972 v 5.98568 c 0,0.46678 -0.366037,0.83346 -0.832808,0.83346 -0.466769,0 -0.830857,-0.36668 -0.830857,-0.83346 9.3e-5,-0.44453 0,-0.8867 0,-1.33143 0,-0.82406 -0.674462,-1.49658 -1.498534,-1.49658 H 3.6336915 v -13.9809 c 1.1e-6,-0.18778 0.1463889,-0.33417 0.334163,-0.33417 z m -10.6516135,0.66573 c -0.1851064,-9.9e-4 -0.3355401,0.14906 -0.3348132,0.33417 7.324e-4,0.18409 0.1507247,0.33263 0.3348132,0.33156 h 0.3315628 c 0.1838352,6.7e-4 0.3334455,-0.14773 0.3341631,-0.33156 7.323e-4,-0.18486 -0.1493107,-0.33489 -0.3341631,-0.33417 z m 9.7251885,0 c -0.184862,-6.7e-4 -0.334895,0.14931 -0.334163,0.33417 0,0.29191 -0.02929,0.57469 -0.08386,0.84515 -0.037,0.18056 0.08,0.35698 0.2607,0.39332 0.180556,0.037 0.356983,-0.08 0.393324,-0.26069 0.06333,-0.31388 0.09558,-0.64173 0.09558,-0.97778 7.32e-4,-0.18391 -0.14766,-0.33354 -0.331563,-0.33417 z m -9.7251885,1.33145 c -0.1851064,-10e-4 -0.3355401,0.14905 -0.3348132,0.33416 3.663e-4,0.18435 0.1504704,0.3333 0.3348132,0.33222 h 1.9945774 c 0.1843428,0.001 0.3344566,-0.14787 0.3348131,-0.33222 7.323e-4,-0.18511 -0.1497068,-0.33524 -0.3348131,-0.33416 z m 5.3687145,0 h 2.314438 c -0.06674,0.16869 -0.14928,0.3215 -0.243146,0.45249 -0.256775,0.35833 -0.577905,0.54805 -0.914072,0.54805 -0.336169,0 -0.657299,-0.18972 -0.914074,-0.54805 -0.09386,-0.13099 -0.176407,-0.2838 -0.243146,-0.45249 z m -5.3687145,1.3321 c -0.1851051,-9.9e-4 -0.3355382,0.14905 -0.3348132,0.33417 6.99e-4,0.18409 0.1507234,0.33264 0.3348132,0.33156 h 0.9972887 c 0.1828217,-6.7e-4 0.3308511,-0.14874 0.3315628,-0.33156 7.323e-4,-0.18383 -0.147728,-0.33345 -0.3315628,-0.33417 z m 12.9725525,1.22484 c 1.367694,1.36769 1.367694,3.57714 0,4.94483 -1.367695,1.3677 -3.57519,1.36575 -4.942885,-0.003 -1.367694,-1.36769 -1.367694,-3.57389 0,-4.94159 0.683847,-0.68385 1.577263,-1.0261 2.471118,-1.02652 0.893854,-3e-4 1.78792,0.34143 2.471767,1.02527 z m -2.987965,0.10656 c -0.06622,-7e-5 -0.130962,0.0196 -0.185935,0.0566 l -0.825007,0.55064 -0.354316,-0.20413 c -0.159461,-0.0917 -0.362891,-0.0366 -0.454437,0.12291 -0.09166,0.15945 -0.03664,0.36288 0.122876,0.45444 l 0.366018,0.21193 v 0.8055 c -3.66e-4,0.11147 0.05504,0.2156 0.147579,0.27761 l 0.84971,0.56561 v 0.62996 l -0.675477,0.38943 c -0.158611,0.0925 -0.21235,0.29563 -0.120271,0.45443 0.0924,0.15861 0.295634,0.21235 0.454436,0.12027 l 0.660525,-0.38226 0.828907,0.55195 c 0.111515,0.074 0.256459,0.074 0.367969,0 l 0.828907,-0.55131 0.328962,0.1905 c 0.158801,0.0921 0.36203,0.0377 0.454437,-0.1209 0.09208,-0.15881 0.03834,-0.36203 -0.120271,-0.45444 l -0.343915,-0.19764 v -0.80745 c 3.66e-4,-0.11134 -0.05504,-0.2156 -0.147579,-0.27761 l -0.85296,-0.56755 v -0.62542 l 0.676128,-0.39137 c 0.159505,-0.0916 0.214535,-0.29564 0.122875,-0.45509 -0.04406,-0.0762 -0.116547,-0.13181 -0.201538,-0.15473 -0.08526,-0.0234 -0.176776,-0.0113 -0.253548,0.0318 l -0.663776,0.38357 -0.825005,-0.55064 c -0.05479,-0.0369 -0.119277,-0.0565 -0.185285,-0.0566 z m -3.227861,0.55065 c -0.147229,0.30433 -0.254962,0.62315 -0.323762,0.94853 h -1.06295 c 0.06591,-0.16428 0.14684,-0.31277 0.239245,-0.44013 0.247924,-0.34173 0.557798,-0.52645 0.884817,-0.53766 0.07659,0 0.181709,0.009 0.26265,0.0293 z m -6.7567265,0.11574 c -0.1840885,-9.9e-4 -0.3340964,0.14747 -0.3348132,0.33157 -7.323e-4,0.18511 0.1497068,0.33524 0.3348132,0.33416 h 0.3315628 c 0.1848524,6.7e-4 0.3348871,-0.14932 0.3341631,-0.33416 -7.176e-4,-0.18383 -0.1503279,-0.33228 -0.3341631,-0.33157 z m 9.9845875,1.59606 -0.665076,-0.44403 v -0.64103 l 0.666376,-0.44468 0.665726,0.44468 v 0.64103 z m -9.9845875,-0.26457 c -0.1840885,-10e-4 -0.3340964,0.14748 -0.3348132,0.33156 -7.323e-4,0.18511 0.1497068,0.33525 0.3348132,0.33417 h 1.9945774 c 0.1851063,9.9e-4 0.33554,-0.14906 0.3348131,-0.33417 -7.323e-4,-0.18408 -0.1507247,-0.33263 -0.3348131,-0.33156 z m 6.3464985,0.16775 c -0.01057,0.22107 -0.003,0.44296 0.02145,0.66312 H 9.8378096 c -0.03203,-0.22817 -0.014732,-0.4504 0,-0.66378 z m 4.636678,0.23273 0.665725,0.44208 v 0.64168 l -0.665725,0.44467 -0.665726,-0.44208 v -0.64361 z m -10.9831765,0.93162 c -0.1840898,-9.9e-4 -0.3340982,0.14747 -0.3348132,0.33156 -7.323e-4,0.18511 0.1497081,0.33525 0.3348132,0.33417 h 0.9972887 c 0.1838348,-6.7e-4 0.332281,-0.15033 0.3315628,-0.33417 -6.99e-4,-0.18281 -0.1487411,-0.33084 -0.3315628,-0.33156 z m 5.3700155,0.16448 h 1.127313 c 0.08798,0.31387 0.213544,0.61956 0.37642,0.90953 -0.112257,0.0452 -0.228147,0.0683 -0.347814,0.0683 -0.338663,0 -0.660752,-0.18555 -0.916674,-0.5383 -0.09234,-0.12729 -0.173363,-0.27533 -0.239245,-0.43949 z m 8.322223,1.5421 0.616966,0.51034 -0.627368,0.62738 -0.510346,-0.61697 c 0.09334,-0.0783 0.184046,-0.16064 0.271751,-0.24836 0.08777,-0.0878 0.170734,-0.17898 0.248997,-0.27239 z M 4.6342305,286.043 c -0.1851064,-0.001 -0.3355401,0.14905 -0.3348132,0.33416 7.324e-4,0.1841 0.1507247,0.33265 0.3348132,0.33157 h 0.3315628 c 0.1838352,6.6e-4 0.3334455,-0.14774 0.3341631,-0.33157 7.323e-4,-0.18484 -0.1493107,-0.33488 -0.3341631,-0.33416 z m 14.8247525,0.64752 1.289194,1.0662 c 0.130187,0.13236 0.193739,0.30055 0.193737,0.47069 0,0.17091 -0.06235,0.33735 -0.193737,0.46875 -0.262085,0.26208 -0.675934,0.26072 -0.940078,0 l -1.066202,-1.28855 z m -14.8247525,0.68394 c -0.1851064,-10e-4 -0.3355401,0.14905 -0.3348132,0.33415 7.324e-4,0.18409 0.1507247,0.33265 0.3348132,0.33157 h 1.9945774 c 0.1840884,10e-4 0.3340964,-0.14748 0.3348131,-0.33157 7.323e-4,-0.1851 -0.1497068,-0.33525 -0.3348131,-0.33415 z m 6.5259345,0 c 0.336165,0 0.657296,0.18973 0.914072,0.54805 0.09386,0.13099 0.176407,0.28314 0.243146,0.45183 h -2.314438 c 0.06674,-0.16869 0.14928,-0.32084 0.243146,-0.45183 0.256776,-0.35832 0.577909,-0.54805 0.914074,-0.54805 z m 2.934004,0.16772 c -0.03279,0.001 -0.0656,0.008 -0.09817,0.0189 -0.171628,0.0619 -0.261539,0.25028 -0.201537,0.42258 0.149268,0.42465 0.230793,0.89464 0.230793,1.38866 -7.32e-4,0.18486 0.149306,0.3349 0.334164,0.33417 0.183897,-6.7e-4 0.332285,-0.15028 0.331563,-0.33417 0,-0.56877 -0.09603,-1.11086 -0.270452,-1.6071 -0.04943,-0.1413 -0.184278,-0.22832 -0.326362,-0.22299 z m -11.6248477,3.49376 h 8.7415517 c -0.160784,0.23829 -0.254847,0.52514 -0.254847,0.83281 v 3.1622 c 0,0.18774 -0.143812,0.33417 -0.331563,0.33417 H 1.970677 c -0.1877514,0 -0.3348133,-0.14643 -0.3348133,-0.33417 v -3.1622 c 0,-0.46675 0.3666879,-0.83281 0.8334576,-0.83281 z m 9.9858877,0 c 0.466769,0 0.832807,0.36606 0.832807,0.83281 v 1.33145 c 0,0.30769 0.09384,0.59475 0.254198,0.83346 h -1.920463 v -2.16491 c 0,-0.46675 0.366688,-0.83281 0.833458,-0.83281 z m -9.8188061,0.9999 c -0.1838352,-6.7e-4 -0.3334456,0.14772 -0.3341632,0.33156 -7.256e-4,0.18485 0.1493106,0.33489 0.3341632,0.33416 h 1.9978276 c 0.1838362,-6.6e-4 0.3322828,-0.15033 0.3315628,-0.33416 -6.99e-4,-0.18282 -0.1487425,-0.33086 -0.3315628,-0.33156 z m 3.3266791,0 c -0.1828203,6.7e-4 -0.3308491,0.14874 -0.3315628,0.33156 -7.323e-4,0.18383 0.1477266,0.33345 0.3315628,0.33416 h 0.3341631 c 0.1838362,-6.6e-4 0.3322828,-0.15033 0.3315628,-0.33416 -7.137e-4,-0.18282 -0.1487425,-0.33086 -0.3315628,-0.33156 z m -3.3266791,1.66366 c -0.1848512,-6.6e-4 -0.3348854,0.14931 -0.3341632,0.33416 7.157e-4,0.18384 0.1503267,0.33229 0.3341632,0.33157 h 5.3245064 c 0.1838372,6.6e-4 0.3334475,-0.14773 0.3341634,-0.33157 7.322e-4,-0.18485 -0.1493122,-0.33489 -0.3341634,-0.33416 z"
       sodipodi:nodetypes="sccsssssscscccccsccsccsscccccscsccccscssccsccccsccccccsccsccccscsssccsssscsccsccscccccsccsccccccccccccccccccsssccsccsccsscscsscccccccccccccccccccccccccccccccscccsccccccscccccccccccccsccccccccccccccccccscccccsscccccscccccsccccssccccsccsccssccsssscccccssssssssssssccccssccccsccccccscccsccsccs" />
  </g>
</svg>
