<svg version="1.1" id="Layer_1" xmlns="http://www.w3.org/2000/svg" xmlns:xlink="http://www.w3.org/1999/xlink" x="0px" y="0px"
	 width="100%" viewBox="0 0 496 496" enable-background="new 0 0 496 496" xml:space="preserve">
<path fill="#000000" opacity="1.000000" stroke="none" 
	d="
M117.731857,318.518677 
	C119.262138,320.117767 119.299446,321.464539 117.656464,322.489655 
	C115.898239,323.586639 114.791191,322.445038 114.080261,321.011475 
	C112.833839,318.498169 111.289444,317.889191 108.979736,319.755402 
	C108.017426,320.532928 106.820267,320.790039 105.757942,319.935608 
	C104.480667,318.908295 104.565285,317.598022 105.471107,316.393921 
	C106.630005,314.853363 106.576569,313.443726 104.736343,312.811432 
	C102.518356,312.049286 101.772858,313.583099 101.656647,315.504761 
	C101.539902,317.435181 100.760895,319.073822 98.651382,318.373627 
	C96.505669,317.661438 97.006630,315.822235 97.944878,314.231476 
	C98.858040,312.683228 98.518387,311.479614 97.175926,310.294922 
	C93.065414,306.667480 86.173561,306.666870 82.106247,310.468262 
	C80.555504,311.917633 79.335846,312.194794 77.339348,310.892090 
	C71.616730,307.158112 68.182198,308.774750 67.550682,315.181396 
	C67.402504,316.684631 67.279648,318.291016 65.566200,318.901825 
	C63.705692,319.565063 62.072056,318.655823 61.248207,317.216278 
	C59.324497,313.854858 56.804615,313.340759 53.290184,314.382416 
	C51.530540,314.903961 49.434509,314.553192 49.319939,317.108948 
	C49.204254,319.689484 50.275440,321.669678 52.922504,322.411896 
	C54.674580,322.903137 56.469105,323.244598 58.247791,323.638855 
	C59.792793,323.981323 60.653847,324.933655 60.307583,326.493256 
	C59.944309,328.129456 58.605618,328.313324 57.150169,328.138458 
	C53.255100,327.670471 49.334602,327.363403 45.469784,326.719025 
	C43.904144,326.458008 42.559647,326.555603 41.106815,327.069427 
	C36.467400,328.710327 33.281837,326.594421 34.268562,321.969696 
	C35.121147,317.973694 33.110950,316.609100 30.225275,315.918243 
	C27.364418,315.233307 25.034346,312.843994 21.736578,313.507538 
	C20.485149,313.759277 19.461840,312.713287 19.481171,311.373291 
	C19.504852,309.731628 20.780779,308.719940 22.172400,309.286255 
	C26.749813,311.149078 26.848820,305.635254 30.114914,304.718964 
	C35.238537,303.281525 30.568262,299.106171 31.227160,296.621826 
	C32.713558,291.017365 32.000401,285.471558 32.551945,279.937775 
	C32.658512,278.868591 33.686707,277.859528 32.665474,276.782410 
	C28.505026,272.394287 32.354225,270.150421 35.445599,269.117371 
	C40.178181,267.535889 41.557529,263.615753 43.148632,259.969269 
	C44.483475,256.910065 42.446777,254.771866 39.247986,254.629440 
	C37.273010,254.541534 35.043499,254.861725 35.500313,252.230652 
	C36.051414,249.056488 38.316139,250.389542 40.143272,251.278809 
	C41.474350,251.926651 42.779957,251.702744 43.941368,250.922729 
	C46.572006,249.155975 49.180313,247.884232 52.148300,250.273758 
	C52.474117,250.536072 53.392857,250.652924 53.538948,250.460144 
	C56.390327,246.697449 62.863659,246.786865 63.713894,240.946198 
	C63.986313,239.074829 64.116562,236.901184 66.724510,237.389404 
	C68.936440,237.803497 68.472755,239.627701 68.227791,241.406479 
	C67.799950,244.513123 69.301018,246.779251 72.494652,246.888840 
	C76.962952,247.042160 81.458435,246.784668 85.924461,246.458588 
	C88.100502,246.299713 88.869102,244.603607 88.933502,242.523499 
	C88.981918,240.959869 89.374146,239.377792 91.209503,239.123505 
	C93.094292,238.862366 93.867531,240.291824 94.144241,241.852386 
	C94.677811,244.861572 96.928589,245.209381 99.057846,244.554855 
	C103.324097,243.243423 108.411636,242.734726 107.889801,235.982315 
	C107.683296,233.310211 109.838837,230.719315 109.595734,227.763351 
	C109.327576,224.502686 109.268196,221.200638 104.663643,221.203568 
	C101.314903,221.205688 102.466797,216.262283 98.272011,216.143677 
	C98.121178,216.144714 97.889832,217.051178 97.513123,217.751785 
	C96.813835,219.052261 95.880676,219.984024 94.332306,219.340256 
	C92.794327,218.700790 92.708603,217.319519 93.169701,215.954147 
	C94.000893,213.492905 93.731003,211.846786 90.764839,211.129807 
	C88.086075,210.482300 88.299583,208.260376 89.016937,206.263031 
	C90.670380,201.659424 90.374146,198.103363 84.738441,196.762955 
	C83.297386,196.420227 82.437943,195.209213 83.211357,193.680389 
	C83.975609,192.169678 85.365181,192.184952 86.613197,193.034317 
	C91.397408,196.290298 95.234604,191.360626 99.760818,191.444107 
	C101.869263,191.483002 101.841934,188.551971 100.636276,186.534119 
	C99.985344,185.444717 99.944145,184.183823 101.082466,183.395386 
	C102.416870,182.471115 103.845741,182.923203 104.515335,184.229797 
	C106.551590,188.203156 109.087097,186.655212 111.415878,184.859039 
	C113.888290,182.952087 117.383492,181.095901 118.153015,178.533203 
	C119.569542,173.815796 119.246132,168.708572 123.393768,164.854584 
	C124.509476,163.817871 122.780151,161.934006 121.090691,161.122665 
	C117.895164,159.588089 114.383720,159.285355 111.057816,158.316025 
	C107.469841,157.270340 103.235672,158.528168 100.558388,153.498215 
	C99.490768,151.492416 94.129028,149.903854 90.549393,148.598312 
	C88.788414,147.956039 87.782341,150.037933 86.629402,151.198914 
	C85.730148,152.104431 84.561646,152.574936 83.554939,151.548203 
	C82.411163,150.381668 82.595284,148.792923 83.997704,148.193344 
	C87.029861,146.896973 86.810745,144.319199 86.859329,141.886749 
	C86.923927,138.653152 86.000145,136.376984 82.129250,138.438187 
	C80.484863,139.313812 78.745468,139.865265 78.080376,137.626923 
	C77.393593,135.315521 79.290977,134.932358 81.072334,134.774857 
	C83.329475,134.575272 85.393700,133.167053 85.308037,131.219269 
	C85.054535,125.454689 87.985252,126.226357 91.603226,127.520683 
	C92.309616,127.773384 93.183807,127.557045 93.694443,127.557045 
	C94.852844,126.480743 94.758087,125.507668 94.450867,124.514931 
	C93.369118,121.019440 95.386612,120.079338 98.118546,120.714928 
	C102.778831,121.799156 106.968727,121.341965 110.842461,118.436310 
	C111.657204,117.825157 112.951065,117.339554 113.640076,118.023033 
	C116.012123,120.376030 118.549049,120.826698 121.727188,119.919594 
	C123.134918,119.517799 124.799484,121.359871 123.854568,122.310799 
	C120.546257,125.640121 124.422348,128.718155 123.421608,131.632095 
	C125.204948,133.374146 127.135651,132.610580 128.890930,132.763184 
	C130.296951,132.885422 131.592819,133.169006 132.028152,134.710052 
	C132.518066,136.444275 131.713943,137.835892 130.139679,138.286652 
	C126.359276,139.369141 125.815025,142.909744 123.739044,145.705948 
	C126.849922,147.269485 129.275391,146.212067 131.183548,144.408264 
	C135.147202,140.661407 140.901520,143.064972 145.065277,140.112442 
	C145.368179,139.897675 146.695923,140.587997 147.118683,141.169189 
	C150.103180,145.272125 154.906006,144.218170 158.661758,144.382843 
	C162.489395,144.550644 163.617798,139.825134 164.381058,136.603821 
	C165.102005,133.561035 162.021606,132.891708 159.755280,132.589157 
	C152.015610,131.556030 144.251022,130.288284 136.450714,132.111160 
	C134.926758,132.467316 133.423233,132.937027 132.599869,131.081299 
	C131.831711,129.349991 132.967285,128.336426 134.148102,127.290985 
	C135.513443,126.082176 136.907150,124.845543 137.999725,123.402336 
	C139.711960,121.140572 141.541840,120.377502 143.825455,122.408134 
	C146.264771,124.577240 149.089050,123.054642 151.468643,122.834671 
	C156.570297,122.363068 161.503128,120.654190 166.805923,121.573341 
	C169.405502,122.023956 170.267883,119.693810 171.137558,117.567352 
	C171.833023,115.866852 171.237610,113.284302 173.912537,112.717300 
	C174.788788,112.531555 175.791992,112.778030 176.002823,113.641525 
	C176.567139,115.952896 176.458603,119.027420 174.929535,120.160759 
	C170.828033,123.200783 169.476379,126.145782 172.691086,130.533035 
	C173.031723,130.997955 172.625183,132.114059 172.395279,132.876831 
	C170.619110,138.769897 171.354843,139.679352 177.745834,139.270050 
	C178.835114,139.200287 179.748459,139.244919 180.269684,141.034912 
	C174.207504,142.358246 172.306335,148.044769 168.886429,152.262665 
	C167.739731,153.676941 166.518295,153.818665 164.924835,153.315353 
	C161.613190,152.269318 159.725952,153.845474 159.213959,156.968521 
	C158.915237,158.790817 158.142166,159.897720 156.686798,160.967865 
	C152.641861,163.942093 152.759537,172.278748 157.358002,173.051315 
	C161.855347,173.806915 166.175964,179.154449 171.539658,174.681305 
	C173.394287,173.134598 175.014633,174.697510 174.830475,177.123276 
	C174.731384,178.428802 174.262878,179.716934 173.877609,180.987625 
	C173.292542,182.917252 169.297928,183.271912 170.523727,185.319885 
	C172.865112,189.231644 172.746338,194.435364 176.885803,197.591064 
	C178.228363,196.758469 179.431931,195.900604 180.736282,195.242401 
	C181.604965,194.804001 183.143845,194.117966 183.482773,194.453033 
	C186.381836,197.319290 189.029800,200.454697 193.465256,200.993774 
	C193.541809,201.003067 193.707489,202.306503 193.431213,202.764618 
	C192.876160,203.684998 191.841507,204.095917 190.823380,203.614120 
	C186.141403,201.398682 185.487076,204.177292 183.667328,207.892502 
	C180.148514,215.076553 182.037018,221.017227 185.455383,227.168915 
	C185.893845,227.957977 185.968689,228.773026 185.405807,229.505630 
	C184.710739,230.410263 183.579437,230.754501 182.746979,230.137787 
	C178.406631,226.922195 176.159241,228.734329 174.693741,233.160507 
	C174.498749,233.749466 173.281021,234.532944 172.753204,234.395538 
	C167.818817,233.110962 166.398880,236.663879 164.743942,239.974365 
	C163.380615,242.701553 161.136215,244.678314 158.899490,246.402802 
	C159.045853,248.226517 160.589935,248.123474 161.409958,248.846924 
	C162.419525,249.737610 162.762772,250.868973 162.061768,251.964478 
	C161.181305,253.340454 159.764572,253.440262 158.635880,252.359238 
	C156.265381,250.088821 153.359818,251.377441 150.886292,250.835022 
	C145.287354,249.607208 140.931244,248.711914 138.473709,255.519379 
	C138.054657,256.680145 134.881531,256.789276 133.029114,257.508820 
	C131.636398,258.049805 130.170776,258.765442 129.868576,260.398254 
	C128.838821,265.962158 128.883911,265.970490 124.164040,262.509430 
	C120.699677,263.701874 120.052582,266.277649 120.346222,269.632782 
	C120.865051,275.560760 123.334229,280.753204 125.976990,285.911957 
	C126.203026,286.353149 126.874702,286.889465 126.768684,287.129639 
	C124.637894,291.956543 127.712036,296.292480 127.898407,300.849243 
	C128.017670,303.765411 127.590088,306.201233 131.382599,306.601715 
	C133.123535,306.785614 134.417938,307.839111 133.809158,309.588226 
	C133.078278,311.688110 131.443039,311.269836 129.703888,310.434662 
	C126.610954,308.949432 117.877380,311.792450 116.142357,314.641357 
	C115.034821,316.459900 116.158768,317.392761 117.731857,318.518677 
M160.398270,226.900238 
	C163.014603,223.859406 166.733734,221.565735 167.591339,215.880478 
	C159.219818,219.604645 151.215836,215.132904 143.317154,217.412491 
	C140.957443,218.093521 138.722610,218.113541 139.036560,214.722427 
	C139.248123,212.437241 145.143494,207.861191 147.283401,208.497513 
	C153.428589,210.324921 159.521317,208.141342 165.626358,208.618347 
	C167.343918,208.752533 168.950958,208.219727 170.246399,207.054977 
	C171.834061,205.627502 172.872070,203.937134 171.756775,201.760284 
	C170.676056,199.650909 168.752747,199.892029 166.965363,200.448654 
	C165.524734,200.897308 164.253220,201.484879 162.660675,200.837463 
	C158.397385,199.104294 154.053894,198.883362 149.711136,200.632965 
	C148.192825,201.244659 146.764404,201.366486 145.721375,199.820847 
	C144.507095,198.021393 144.476410,196.030136 145.157990,194.071121 
	C145.705933,192.496124 146.815598,191.756989 148.652054,192.038651 
	C152.263306,192.592514 155.474731,190.938278 158.743591,189.824066 
	C160.345352,189.278137 161.756882,188.250656 161.107254,186.079834 
	C159.724319,181.458450 153.531235,179.300064 149.530380,182.188248 
	C147.565918,183.606384 145.655273,184.858917 143.132614,184.162399 
	C139.637619,183.197357 137.593689,185.173401 135.516922,187.563034 
	C136.883026,189.421951 140.036560,190.639786 137.869415,193.365021 
	C136.188889,195.478317 136.688446,197.274277 137.593124,199.357040 
	C138.618973,201.718735 138.196686,204.569016 135.373444,203.949951 
	C128.841003,202.517624 123.748772,206.815979 117.717438,207.000793 
	C117.852386,210.324600 119.653801,211.493347 122.325668,212.345627 
	C125.395935,213.324982 127.867348,211.924438 130.522964,211.117752 
	C132.108063,210.636246 133.796814,209.616516 135.032166,211.441650 
	C136.232529,213.215057 134.812210,214.659546 133.782547,215.876816 
	C131.652084,218.395447 129.747299,220.859467 125.460258,219.673721 
	C121.544807,218.590729 119.420799,222.830780 116.977943,224.860626 
	C114.609322,226.828751 118.260406,228.081985 119.718056,229.415894 
	C120.153297,229.814194 120.572975,230.662094 120.448837,231.169128 
	C119.620491,234.552734 122.077011,236.451645 123.822456,238.529556 
	C126.829849,242.109802 132.016525,241.498337 134.336746,237.397888 
	C135.126953,236.001389 136.359329,234.160599 137.609329,235.236557 
	C141.581863,238.656036 144.213272,237.602768 146.535919,233.537643 
	C146.662338,233.316391 147.175171,233.127914 147.434006,233.197983 
	C153.230286,234.766846 156.062439,230.024002 160.398270,226.900238 
M69.008301,271.435669 
	C66.637123,268.445984 64.264259,265.457611 61.895378,262.466095 
	C60.480434,260.679230 58.959450,260.939697 57.043045,261.806580 
	C55.130955,262.671509 53.239761,263.367126 53.196175,265.783966 
	C53.160465,267.764038 52.715893,270.277374 53.707672,271.642365 
	C58.163055,277.774261 62.061092,285.183716 68.130722,288.990295 
	C72.872269,291.963959 80.456604,293.301270 86.791130,288.357788 
	C91.013466,285.062714 92.192238,285.937653 93.141121,291.108887 
	C94.028755,295.946320 95.909622,297.224457 101.707726,296.298737 
	C97.692490,292.000336 95.362480,287.083649 92.787376,282.260559 
	C89.993286,277.027374 89.142632,277.481567 94.267441,275.195312 
	C92.268509,273.430908 90.370422,271.541992 88.469765,269.879089 
	C83.176231,265.247742 79.391464,258.677216 72.014107,256.539703 
	C70.662827,256.148163 69.383682,254.435059 68.061653,255.861084 
	C66.528770,257.514557 68.285088,258.898712 69.153755,260.213684 
	C72.273445,264.936279 75.469040,269.608826 78.576744,274.339142 
	C79.624168,275.933472 80.436623,277.815430 78.555962,279.254974 
	C76.351440,280.942474 74.866615,279.256104 73.602684,277.622528 
	C72.177673,275.780731 70.846474,273.866364 69.008301,271.435669 
M54.499420,295.013641 
	C55.200634,296.108582 55.664734,297.562286 56.656433,298.217682 
	C58.306717,299.308289 60.150101,298.993530 61.637894,297.500885 
	C62.926941,296.207611 63.032330,293.879730 61.705936,293.730713 
	C56.430191,293.137878 56.113831,288.557373 53.866909,285.411865 
	C52.749989,283.848297 52.411835,282.125244 51.517502,280.587128 
	C50.507652,278.850403 49.129471,277.644409 47.061974,279.017029 
	C43.069309,281.667725 43.704193,291.514435 47.758129,293.992432 
	C49.915443,295.311127 52.028263,292.961639 54.499420,295.013641 
M104.591240,264.319611 
	C104.656517,259.589813 99.272568,254.589767 95.148987,255.554932 
	C93.905624,255.845947 93.177956,256.711365 92.727432,257.836029 
	C91.251663,261.520142 97.175087,272.640656 101.425209,273.931274 
	C102.929237,271.132172 102.410789,268.886993 99.594810,267.330688 
	C97.889114,266.388031 96.064293,265.420166 97.710045,263.254089 
	C99.335625,261.114624 100.827209,262.605347 102.236931,263.901733 
	C102.666389,264.296692 103.412689,264.347076 104.591240,264.319611 
M139.536041,156.799927 
	C141.393860,156.864243 143.136978,156.693420 143.990906,154.677979 
	C140.752563,150.489029 139.793091,150.565323 135.341888,155.348526 
	C136.211990,156.547836 137.531403,156.619949 139.536041,156.799927 
M107.097435,132.324692 
	C105.909752,133.087830 105.066528,134.241913 107.082092,134.559921 
	C109.387672,134.923706 111.997437,135.497147 114.171204,133.386688 
	C112.853661,128.234100 109.982590,131.752182 107.097435,132.324692 
M108.711685,288.223602 
	C108.128517,290.608093 109.140259,292.289825 111.463615,292.338318 
	C113.192505,292.374390 113.836037,290.522705 113.353317,289.022278 
	C112.652222,286.843048 111.286369,285.574829 108.711685,288.223602 
z"/>
<path fill="#000000" opacity="1.000000" stroke="none" 
	d="
M201.874512,257.000000 
	C201.871552,221.518814 201.869598,186.537628 201.862564,151.556442 
	C201.862122,149.391113 201.846024,147.225220 201.795898,145.060547 
	C201.461823,130.633957 198.737793,127.649879 184.478928,126.242706 
	C181.782516,125.976608 179.411697,125.619232 179.731796,122.019989 
	C180.080063,118.104187 182.895111,119.560165 185.008850,119.562416 
	C210.827560,119.589951 236.651367,119.337036 262.463043,119.782822 
	C278.405304,120.058151 293.531036,123.889114 305.955719,134.708664 
	C317.775940,145.001862 322.718872,158.557236 322.695496,173.841705 
	C322.672546,188.854874 318.807678,202.796143 308.679260,214.453888 
	C298.265625,226.439911 284.911469,232.932983 269.424316,235.273331 
	C257.881439,237.017624 246.227310,237.201691 234.581848,236.990204 
	C230.506592,236.916199 229.028046,238.412125 229.082504,242.543213 
	C229.280075,257.532684 229.112473,272.526520 229.237045,287.517456 
	C229.372467,303.813965 233.085739,307.616974 249.428009,308.635193 
	C250.757248,308.718018 252.091949,308.719086 253.419754,308.817261 
	C255.832092,308.995636 257.027740,310.332001 256.950165,312.743835 
	C256.863220,315.447144 255.138565,315.943481 252.845795,315.830414 
	C231.706177,314.787659 210.553070,315.491089 189.406052,315.387054 
	C187.411957,315.377228 185.409973,315.489319 183.424179,315.677094 
	C181.274017,315.880463 179.848297,315.394226 179.720108,312.886169 
	C179.599106,310.518738 180.384964,309.037933 182.916916,308.753265 
	C185.061203,308.512177 187.202789,308.219269 189.329651,307.856079 
	C198.300461,306.324188 201.413696,303.056091 201.623764,293.976654 
	C201.904968,281.822327 201.808609,269.659302 201.874512,257.000000 
M229.757034,137.490906 
	C229.674164,137.813049 229.519836,138.134918 229.518616,138.457397 
	C229.407471,167.598495 229.326569,196.739731 229.180603,225.880646 
	C229.165253,228.946182 230.600769,230.005417 233.456955,229.950592 
	C241.115128,229.803543 248.817352,230.213333 256.424927,229.535767 
	C271.241760,228.216125 282.838562,221.625412 288.556641,207.159927 
	C295.728149,189.017609 295.734039,170.424042 290.620544,151.871353 
	C286.990265,138.699966 277.757751,130.795105 264.625183,127.483208 
	C257.611328,125.714371 250.425034,126.040726 243.271713,126.304955 
	C235.832977,126.579735 232.055267,129.563385 229.757034,137.490906 
z"/>
<path fill="#000000" opacity="1.000000" stroke="none" 
	d="
M429.952576,119.005722 
	C444.372925,120.040695 458.348541,119.957764 472.328827,119.211624 
	C474.202484,119.111626 476.588470,118.157272 477.169220,121.114761 
	C477.561768,123.114113 477.577698,125.144333 475.112518,126.112038 
	C465.115204,130.036484 460.024017,138.322998 456.365784,147.688568 
	C443.585968,180.406586 430.931091,213.173386 418.210602,245.914612 
	C409.590088,268.102936 400.942780,290.280853 392.296326,312.459106 
	C391.461823,314.599548 390.953461,317.094208 387.833832,317.043274 
	C384.945587,316.996094 384.545197,314.632690 383.780334,312.662903 
	C362.027985,256.644745 340.277863,200.625687 318.560913,144.593781 
	C316.306854,138.778122 313.632965,133.279343 308.620941,129.292511 
	C306.920258,127.939697 305.090240,126.683037 302.892456,126.374557 
	C299.946167,125.961021 298.261017,124.678154 298.758850,121.450165 
	C299.260468,118.197540 301.798950,118.800613 303.822052,118.982277 
	C318.793488,120.326584 333.791870,119.479301 348.776276,119.610863 
	C352.761597,119.645859 356.750427,119.187454 360.738922,118.980263 
	C363.029327,118.861290 364.690948,119.550743 364.733582,122.233307 
	C364.771332,124.606659 363.399506,125.241745 361.273956,125.517944 
	C358.148712,125.924057 355.065521,126.667229 351.972992,127.308197 
	C347.088440,128.320572 345.025085,131.397339 345.302490,136.304855 
	C345.619751,141.917297 347.968506,146.936935 349.884583,152.050110 
	C365.010803,192.415955 380.227264,232.748016 395.440887,273.081055 
	C396.064728,274.734894 396.936584,276.295166 398.229034,279.036041 
	C401.255981,271.243683 403.910156,264.498718 406.499908,257.729095 
	C419.168518,224.613327 431.880188,191.513748 444.415802,158.347656 
	C446.404877,153.085007 447.846436,147.582672 447.786530,141.813751 
	C447.707947,134.244858 444.858948,129.999710 437.670349,127.590393 
	C434.845032,126.643440 431.871918,126.098633 428.934113,125.538681 
	C426.729614,125.118492 423.871460,125.728165 423.980011,122.151154 
	C424.098663,118.242279 427.108215,119.081703 429.952576,119.005722 
z"/>
<path fill="#000000" opacity="1.000000" stroke="none" 
	d="
M168.640106,365.856415 
	C168.532944,363.370697 166.153793,362.907166 165.307632,360.569580 
	C172.792130,360.038330 180.039932,358.971008 187.055969,361.538727 
	C192.081512,363.377960 194.005554,369.102844 191.227356,374.025635 
	C189.483582,377.115448 189.384842,379.025452 192.014435,381.782410 
	C198.293579,388.365814 195.408447,397.947693 186.423111,399.870789 
	C179.665451,401.317108 172.679749,400.296326 165.243195,399.707245 
	C169.555954,397.351288 168.781937,393.669434 168.776718,390.255432 
	C168.764526,382.259979 168.717987,374.264618 168.640106,365.856415 
M179.474854,381.004669 
	C177.259140,380.940002 175.174011,381.478882 175.437042,384.132233 
	C175.876724,388.567261 173.477142,393.400726 177.086212,397.374207 
	C177.522263,397.854248 178.650330,397.782532 179.465485,397.828705 
	C184.087234,398.090546 187.980042,394.942413 188.578522,390.503540 
	C189.282669,385.281006 186.455612,382.043335 179.474854,381.004669 
M185.343063,366.543549 
	C183.694748,363.725586 181.438538,361.702789 178.021194,362.870605 
	C174.750656,363.988281 175.414429,367.115601 175.346756,369.728607 
	C175.303635,371.393860 175.419373,373.066711 175.310181,374.726074 
	C175.039658,378.837067 177.548370,379.190582 180.467682,378.312531 
	C186.163574,376.599335 185.982132,371.954773 185.343063,366.543549 
z"/>
<path fill="#000000" opacity="1.000000" stroke="none" 
	d="
M400.201599,390.970795 
	C401.209839,394.535431 400.894257,398.962433 406.995911,396.964233 
	C405.864563,400.456116 403.652649,401.156403 401.101318,401.207153 
	C398.481964,401.259277 396.537476,399.915100 395.719299,397.515503 
	C394.597443,394.225403 393.686768,390.845703 392.948364,387.447296 
	C392.145691,383.753143 390.081573,381.947479 386.295380,382.217285 
	C381.925415,382.528625 383.324188,385.944366 383.278687,388.289490 
	C383.201569,392.265961 382.002106,396.678406 387.359833,399.664185 
	C382.185699,400.667908 378.012543,400.474365 373.671661,400.041656 
	C378.228943,393.413147 377.980133,365.720947 372.678375,360.579590 
	C380.618164,361.074310 387.812225,359.037354 394.871826,361.478271 
	C402.061523,363.964172 403.919983,372.568573 398.597717,378.060852 
	C397.582825,379.108124 396.342194,379.936584 394.871490,381.139313 
	C398.090851,383.599762 399.294495,386.997681 400.201599,390.970795 
M394.840240,373.050476 
	C394.729156,371.066559 395.029755,368.944611 394.420563,367.127716 
	C393.185181,363.443085 389.998566,362.219269 386.434357,362.584045 
	C382.981079,362.937469 383.264618,365.877869 383.216522,368.376007 
	C383.178009,370.373688 383.180817,372.373383 383.219482,374.371094 
	C383.320709,379.602234 385.707794,381.135834 390.504517,379.006561 
	C392.742737,378.013000 394.395935,376.452728 394.840240,373.050476 
z"/>
<path fill="#000000" opacity="1.000000" stroke="none" 
	d="
M98.675751,391.645142 
	C98.674088,383.687927 98.622131,376.188080 98.693085,368.689392 
	C98.721382,365.698334 98.594612,362.907471 95.043716,361.275299 
	C103.381332,360.476410 111.561691,358.292633 119.230042,362.672913 
	C123.033173,364.845337 124.399734,368.765472 123.831284,373.026917 
	C123.143898,378.179871 120.480141,382.021393 115.330292,383.750977 
	C114.546631,384.014191 113.696136,384.086487 112.923904,384.374176 
	C110.241821,385.373322 105.903961,383.584961 105.391426,388.272736 
	C104.923935,392.548401 104.259819,397.203522 110.101936,399.378571 
	C105.231796,400.740906 100.556122,400.398651 94.453300,400.067230 
	C97.826698,397.460144 99.251617,395.158722 98.675751,391.645142 
M109.416298,362.455566 
	C106.415359,362.490814 105.354439,364.264954 105.338661,366.990051 
	C105.315514,370.987549 105.363747,374.987671 105.230034,378.981628 
	C105.117485,382.343231 106.918770,382.999146 109.691429,382.409119 
	C114.183411,381.453278 116.507820,378.675415 116.844582,374.056519 
	C117.355881,367.043884 116.034264,364.647003 109.416298,362.455566 
z"/>
<path fill="#000000" opacity="1.000000" stroke="none" 
	d="
M151.500305,395.556458 
	C156.617401,386.681885 155.997177,365.995392 150.354507,361.168976 
	C154.161102,359.388885 157.623917,359.742401 161.936005,361.231018 
	C157.461411,363.751617 157.158051,367.396637 157.301010,371.383728 
	C157.491989,376.709869 157.449036,382.050262 157.326965,387.380432 
	C157.121262,396.362671 152.217056,401.367523 143.858353,401.321381 
	C135.423996,401.274811 130.736557,396.299072 130.661850,387.238312 
	C130.616501,381.739044 130.660950,376.239044 130.646637,370.739441 
	C130.637131,367.090179 131.293610,363.159882 126.827583,360.762207 
	C131.315720,360.762207 135.803848,360.762207 141.557999,360.762207 
	C135.996857,364.154602 136.909210,368.901093 136.922653,373.360260 
	C136.938232,378.524139 136.927795,383.696838 137.220551,388.849121 
	C137.722672,397.685333 143.478058,400.492249 151.500305,395.556458 
z"/>
<path fill="#000000" opacity="1.000000" stroke="none" 
	d="
M278.835907,366.226379 
	C270.609070,358.787598 262.655151,360.625885 259.399963,370.707123 
	C257.152863,377.666321 257.190186,384.853271 260.044556,391.719971 
	C262.292297,397.127228 266.006653,399.224854 271.414185,398.724304 
	C276.875793,398.218842 279.691864,394.987061 280.650299,389.811340 
	C280.853546,388.713593 280.682098,387.408661 282.828644,386.594147 
	C284.513000,391.005035 283.988617,395.345551 283.620270,399.785522 
	C281.399170,399.851593 280.575470,397.799591 278.208710,398.781799 
	C262.669617,405.230530 250.498566,396.899475 250.976410,380.253052 
	C251.414032,365.007996 262.782684,354.863373 277.934570,361.671204 
	C280.135956,362.660339 281.241241,361.054840 283.176697,360.772583 
	C284.458374,365.089569 284.126923,369.198425 282.727600,373.652405 
	C279.938293,371.779205 280.746948,368.499146 278.835907,366.226379 
z"/>
<path fill="#000000" opacity="1.000000" stroke="none" 
	d="
M358.108856,371.015198 
	C362.144318,380.684143 364.839355,390.512085 370.172852,399.623962 
	C366.586975,401.138763 362.714233,400.128357 358.814117,400.146179 
	C360.667023,395.509338 359.260834,387.563385 356.410889,385.886810 
	C353.675079,384.277435 345.407410,385.654053 343.913086,387.967773 
	C340.827454,392.745239 341.169373,396.061188 345.603546,399.757202 
	C342.016785,400.704803 338.876312,400.449615 335.249390,399.841705 
	C342.950897,387.379395 345.746582,373.051941 352.629303,359.886353 
	C355.976013,363.347626 356.296356,367.340179 358.108856,371.015198 
M355.412323,380.827301 
	C354.084412,377.532806 352.756500,374.238342 351.090820,370.105804 
	C348.619934,374.781250 347.153168,378.620819 346.213165,383.331177 
	C349.835358,382.890442 353.196533,385.686279 355.412323,380.827301 
z"/>
<path fill="#000000" opacity="1.000000" stroke="none" 
	d="
M321.307861,395.131104 
	C320.426941,397.091217 320.413849,399.119629 318.581757,400.176300 
	C316.358398,400.012482 316.279327,398.097504 315.711700,396.634583 
	C312.161133,387.483490 308.627136,378.325928 305.106049,369.163452 
	C304.028076,366.358398 302.948273,363.567200 299.154785,360.998718 
	C304.693878,360.998718 308.900024,360.998718 314.451111,360.998718 
	C309.813049,363.350708 310.514923,366.141571 311.829163,369.237366 
	C314.719238,376.045197 316.554230,383.292755 320.482941,390.644897 
	C323.610657,382.470520 326.450165,375.062561 329.278900,367.650513 
	C330.572571,364.260681 328.132050,362.890015 325.304688,361.468903 
	C329.062408,359.053223 332.396881,360.988892 335.985382,360.761292 
	C329.301605,371.626587 326.370636,383.627594 321.307861,395.131104 
z"/>
<path fill="#000000" opacity="1.000000" stroke="none" 
	d="
M204.793533,360.359619 
	C207.899384,360.369781 210.661728,360.369781 213.424088,360.369781 
	C209.835541,363.494659 209.906113,367.207916 209.965622,371.013824 
	C210.069611,377.665161 209.900589,384.321747 210.064438,390.970764 
	C210.131607,393.695953 208.898758,397.248047 213.609436,397.861816 
	C220.679428,398.783081 224.087326,397.402191 225.529175,392.643555 
	C225.937607,391.295593 225.473419,389.573822 227.198074,388.779175 
	C228.531738,391.937286 228.709793,394.022675 228.082367,399.968018 
	C218.787430,399.968018 209.442749,399.968018 199.921448,399.968018 
	C205.370865,392.568115 205.225159,366.566101 199.841553,361.219574 
	C201.130341,359.582245 202.876236,360.399414 204.793533,360.359619 
z"/>
<path fill="#000000" opacity="1.000000" stroke="none" 
	d="
M242.865585,360.204865 
	C244.216782,360.234406 245.242401,360.120270 246.022415,360.927368 
	C240.744370,368.389343 240.710419,393.718445 246.296249,399.734680 
	C241.716965,400.854675 237.393158,400.363098 232.903259,400.105042 
	C237.616714,392.722870 237.255630,365.973022 232.390732,361.229218 
	C235.614655,358.849884 239.267929,361.356934 242.865585,360.204865 
z"/>
</svg>